# xmcd CD database file
#
# Track frame offsets:
#	150
#	9141
#	18128
#	30853
#	40638
#	52272
#	68902
#	81003
#	107108
#	118764
#	134318
#	143483
#	159844
#	170816
#	187411
#	198101
#	215452
#	231384
#	244361
#	257704
#	268666
#	282181
#	301106
#	303982
#	312381
#
# Disc length: 4369 seconds
#
# Revision: 0
# Processed by: cddbd v1.5.1PL0 Copyright (c) Steve Scherf et al.
# Submitted via: CDex 1.51
#
DISCID=58110f19
DTITLE=Various Artist - Salty Dog Presents Music to Drink Beer By #2
DYEAR=1900
DGENRE=Country
TTITLE0=What is Beer Ad
TTITLE1=Beer, Beer, Beer - The Clancy Brothers
TTITLE2=3 Stooges Part 1
TTITLE3=Too Many Bubbles - Jay Chevalier
TTITLE4=Miller and Hot Dogs - Set Up Another Drink - Carl Phillips
TTITLE5=Mitchell Beer Ad - Beer Barrell Polka - The Andrews Sisters
TTITLE6=Beer Drinking Blues - Eddie Noack
TTITLE7=Worst Beer I Ever Had - Buster Poindexter
TTITLE8=A Broken Heart and a Glass of Beer - Hank Thompson
TTITLE9=Gunther Beer Ad - Durante and Keaton
TTITLE10=Drink It Up, Men - The Dubliners
TTITLE11=Carling Black Label Ad - Fifteen Beers - Johnny Paycheck
TTITLE12=Schlitz Pop Top Holiday Ad - Flop Top Beer - Buddy Meredith
TTITLE13=National Bohemian Beer Ad - Blowing the Suds Off My Beer - Rocky Bill Ford
TTITLE14=Six Pack - Black Flag
TTITLE15=Falstaff - It Was a Very Good Beer - Homer Simpson - Mean Old Bartender Blues - Lee Red Nelson
TTITLE16=No Neck Bottles Ad - What's Made Milwaukee Famous - Jerry Lee Lewis
TTITLE17=Beer Drinking Daddy - Johnny Champion
TTITLE18=One Bourbon, On Scotch and One Beer - John Lee Hooker
TTITLE19=Suds - J. Gale
TTITLE20=Milwaukee Polka - Frankie Yankovich
TTITLE21=Blitz Beer Ad - Til I Drink Milwaukee Dry - Billy Walker
TTITLE22=3 Stooges Part 2
TTITLE23=Water is Alright In Tay - The Clancy Brothers
TTITLE24=Balantine - Manly #1 - On Tap, In the Can, or In a Bottle - Hank Thompson
EXTD=
EXTT0=
EXTT1=
EXTT2=
EXTT3=
EXTT4=
EXTT5=
EXTT6=
EXTT7=
EXTT8=
EXTT9=
EXTT10=
EXTT11=
EXTT12=
EXTT13=
EXTT14=
EXTT15=
EXTT16=
EXTT17=
EXTT18=
EXTT19=
EXTT20=
EXTT21=
EXTT22=
EXTT23=
EXTT24=
PLAYORDER=
